<?xml version="1.0" encoding="UTF-8"?>
<svg width="24px" height="24px" viewBox="0 0 24 24" version="1.1" xmlns="http://www.w3.org/2000/svg">
    <g stroke="none" stroke-width="1" fill="none" fill-rule="evenodd">
        <path d="M14.5,2 C15.1531682,2 16.0847849,2.28125 16.8609694,2.96875 C17.6371539,3.65625 18.1252743,4.65625 18.1252743,5.84375 C18.1252743,7.03125 17.6371539,8.03125 16.8609694,8.71875 C16.0847849,9.40625 15.1531682,9.6875 14.5,9.6875 C13.8468318,9.6875 12.9152151,9.40625 12.1390306,8.71875 C11.3628461,8.03125 10.8747257,7.03125 10.8747257,5.84375 C10.8747257,4.65625 11.3628461,3.65625 12.1390306,2.96875 C12.9152151,2.28125 13.8468318,2 14.5,2 Z M19.5,22 L4.5,22 C4.22385763,22 4,21.7761424 4,21.5 C4,21.2238576 4.22385763,21 4.5,21 L19.5,21 C19.7761424,21 20,21.2238576 20,21.5 C20,21.7761424 19.7761424,22 19.5,22 Z M18.9876033,10.5 C19.6503067,11.0625 20.1384271,11.78125 20.5,12.625 C20.8615729,13.46875 21,14.375 21,15.28125 C21,16.1875 20.8615729,17.09375 20.5,17.9375 C20.1384271,18.78125 19.6503067,19.5 18.9876033,20.0625 C18.3248998,20.625 17.6621964,21 16.8860119,21 C16.1098274,21 15.3336429,20.625 14.6709394,20.0625 C14.008236,19.5 13.5201156,18.78125 13.1585427,17.9375 C12.7969698,17.09375 12.6585427,16.1875 12.6585427,15.28125 C12.6585427,14.375 12.7969698,13.46875 13.1585427,12.625 C13.5201156,11.78125 14.008236,11.0625 14.6709394,10.5 C15.3336429,9.9375 16.1098274,9.5625 16.8860119,9.5625 C17.6621964,9.5625 18.3248998,9.9375 18.9876033,10.5 Z M9.32939866,10.5 C9.99210211,11.0625 10.4802225,11.78125 10.8417954,12.625 C11.2033683,13.46875 11.3417954,14.375 11.3417954,15.28125 C11.3417954,16.1875 11.2033683,17.09375 10.8417954,17.9375 C10.4802225,18.78125 9.99210211,19.5 9.32939866,20.0625 C8.66669521,20.625 8.00399176,21 7.22780725,21 C6.45162274,21 5.67543823,20.625 5.01273478,20.0625 C4.35003133,19.5 3.86191093,18.78125 3.50033803,17.9375 C3.13876513,17.09375 3,16.1875 3,15.28125 C3,14.375 3.13876513,13.46875 3.50033803,12.625 C3.86191093,11.78125 4.35003133,11.0625 5.01273478,10.5 C5.67543823,9.9375 6.45162274,9.5625 7.22780725,9.5625 C8.00399176,9.5625 8.66669521,9.9375 9.32939866,10.5 Z" fill="#000000" fill-rule="nonzero"></path>
    </g>
</svg> 