<?xml version="1.0" encoding="UTF-8"?>
<svg width="24px" height="24px" viewBox="0 0 24 24" version="1.1" xmlns="http://www.w3.org/2000/svg">
    <g stroke="none" stroke-width="1" fill="none" fill-rule="evenodd">
        <path d="M22,12.0605417 C22,6.50295833 17.5229167,2 12,2 C6.47708333,2 2,6.50295833 2,12.0605417 C2,17.0827917 5.65625,21.2434583 10.4375,22 L10.4375,14.9697083 L7.89583333,14.9697083 L7.89583333,12.0605417 L10.4375,12.0605417 L10.4375,9.8455 C10.4375,7.32191667 11.9304167,5.92745833 14.2145833,5.92745833 C15.3087517,5.92745833 16.4375,6.12383333 16.4375,6.12383333 L16.4375,8.6025 L15.1920833,8.6025 C13.95,8.6025 13.5625,9.39875 13.5625,10.2149583 L13.5625,12.0605417 L16.3354167,12.0605417 L15.8925,14.9697083 L13.5625,14.9697083 L13.5625,22 C18.34375,21.2434583 22,17.0827917 22,12.0605417" fill="#1877F2" fill-rule="nonzero"></path>
    </g>
</svg> 