<?xml version="1.0" encoding="UTF-8"?>
<svg width="24px" height="24px" viewBox="0 0 24 24" version="1.1" xmlns="http://www.w3.org/2000/svg">
    <g stroke="none" stroke-width="1" fill="none" fill-rule="evenodd">
        <path d="M20.64,12.2045455 C20.64,11.5818182 20.5827273,10.9818182 20.4763636,10.4045455 L12,10.4045455 L12,13.8454545 L16.8436364,13.8454545 C16.635,14.9681818 15.9572727,15.9245455 14.9436364,16.5613636 L14.9436364,18.8195455 L17.9572727,18.8195455 C19.6981818,17.2527273 20.64,14.9454545 20.64,12.2045455 Z" fill="#4285F4"></path>
        <path d="M12,21 C14.43,21 16.4672727,20.1940909 17.9563636,18.8195455 L14.9427273,16.5613636 C14.1177273,17.1013636 13.0881818,17.4204545 12,17.4204545 C9.65454545,17.4204545 7.67727273,15.8372727 6.96409091,13.71 L3.85636364,13.71 L3.85636364,16.0418182 C5.34545455,18.9831818 8.42727273,21 12,21 Z" fill="#34A853"></path>
        <path d="M6.96409091,13.71 C6.78409091,13.17 6.68181818,12.5931818 6.68181818,12 C6.68181818,11.4068182 6.78409091,10.83 6.96409091,10.29 L6.96409091,7.95818182 L3.85636364,7.95818182 C3.31363636,9.17318182 3,10.5477273 3,12 C3,13.4522727 3.31363636,14.8268182 3.85636364,16.0418182 L6.96409091,13.71 Z" fill="#FBBC05"></path>
        <path d="M12,6.57954545 C13.3213636,6.57954545 14.5077273,7.03363636 15.4404545,7.92545455 L18.1018182,5.26409091 C16.4631818,3.73636364 14.4259091,2.93181818 12,2.93181818 C8.42727273,2.93181818 5.34545455,4.94863636 3.85636364,7.89 L6.96409091,10.29 C7.67727273,8.16272727 9.65454545,6.57954545 12,6.57954545 Z" fill="#EA4335"></path>
    </g>
</svg> 